<?xml version="1.0" encoding="UTF-8"?>
<svg xmlns="http://www.w3.org/2000/svg" viewBox="0 0 1402 856" width="1402" height="856">
<path d="M472.55 473C472.44 472.72 472.32 472.44 472.2 472.16C471.49 467.63 472.12 465.76 470.02 461.5C469.94 457.6 470.41 453.4 469.86 449.54C469.51 447.11 468.32 444.99 468.16 442.5C467.85 437.45 467.58 431.57 468.24 426.55C468.52 424.46 469.66 422.59 469.9 420.49C470.32 416.89 469.92 413.12 470.1 409.5C471.75 405.96 471.34 404.22 471.81 400.5C472.1 398.26 473.07 396.13 473.45 393.91C473.89 391.38 473.92 388.66 474.62 386.18C474.9 385.18 475.6 384.35 475.89 383.37C476.24 382.22 476.18 381.04 476.48 379.89C476.79 378.69 477.5 377.63 477.87 376.44C479.4 371.58 480.24 366.43 482.24 361.72C485.46 354.12 489.3 346.83 493.06 339.47C494.29 337.07 495.18 334.42 496.61 332.13C506.4 316.35 518.15 300.8 532.3 288.82C535 286.54 537.14 283.64 539.82 281.34C542.91 278.69 546.3 276.46 549.62 274.1C552.52 272.04 555.01 269.47 557.99 267.49C562.88 264.23 567.93 261.28 573.14 258.62C575.49 257.42 577.43 255.52 579.75 254.28C582.43 252.83 585.33 251.88 588.09 250.56C591.6 248.88 595.06 246.52 598.71 245.2C599.76 244.82 600.86 244.76 601.91 244.42C603.57 243.87 605 242.72 606.68 242.24C607.55 241.99 608.49 242.07 609.35 241.8C611.72 241.05 613.96 239.58 616.31 238.73C619.96 237.41 623.82 236.15 627.54 235.02C630.07 234.26 632.66 234.18 635.2 233.59C638.01 232.94 640.75 231.72 643.56 231.08C646.64 230.38 648.38 230.59 651.5 229.35C653.15 229.33 654.87 229.43 656.5 229.15C658.22 228.86 659.76 227.93 661.5 227.66C663.07 227.41 664.65 227.67 666.21 227.5C668.01 227.31 669.67 226.74 671.5 226.63C673.75 226.49 676.04 226.83 678.28 226.57C681.05 226.25 683.74 225.18 686.5 224.87C690.73 224.4 695.24 224.83 699.5 224.83C705.81 224.83 712.2 224.55 718.5 224.83C721.2 224.96 723.33 226.07 725.93 226.5C729.73 227.12 733.69 226.2 737.5 226.71C738.63 226.86 739.67 227.35 740.8 227.49C742.37 227.69 743.93 227.47 745.5 227.77C746.89 228.03 748.13 228.79 749.52 229.06C751.48 229.44 753.51 229.32 755.5 229.32C756.83 229.77 758.18 230.46 759.56 230.69C760.85 230.91 762.17 230.72 763.46 230.99C766.81 231.67 770.26 233.04 773.62 233.72C776.22 234.24 778.77 234.39 781.33 235.21C787.28 237.11 792.94 239.5 798.71 241.75C803.08 243.46 807.67 244.7 812.04 246.5C813.65 247.15 815.08 248.14 816.63 248.91C828 254.53 839.49 260.19 849.75 267.74C851.66 269.15 853.24 270.94 855.11 272.37C856.64 273.53 858.4 274.42 859.93 275.57C865.8 279.97 871.73 285.07 876.64 290.5C853.93 307.32 831.21 324.14 808.5 340.96C805.58 339.27 803.73 336.53 801.12 334.39C799.63 333.16 797.84 332.35 796.31 331.17C795.01 330.17 794.03 328.8 792.7 327.83C790.09 325.91 786.41 323.54 783.63 321.85C779.48 319.33 771.62 315.15 767.18 313.44C762.69 311.71 757.85 310.92 753.37 309.26C752.63 309 752.01 308.41 751.28 308.18C748.87 307.43 746.82 307.39 744.5 306.23C738.97 305.75 733.74 304.15 728.28 303.39C725.71 303.02 723.08 303.46 720.5 303.27C719 303.16 717.68 302.67 716.22 302.47C714.33 302.22 712.39 302.58 710.5 302.39C707.83 302.12 705.53 301.28 702.78 301.5C699 301.8 695.25 302.76 691.5 303.22C688.54 303.58 685.48 303.12 682.5 303.28C680.24 303.41 677.85 303.89 675.62 304.28C671.96 304.91 668.18 305.39 664.55 306.13C661.85 306.68 660.5 307.67 657.5 307.81C653.18 310.37 648.05 311 643.39 312.83C636.02 315.71 628.82 319.42 622.04 323.55C620.6 324.42 619.59 325.72 618.23 326.68C616.25 328.09 613.96 329.02 612.02 330.51C610.15 331.95 608.67 333.85 606.91 335.41C602.21 339.59 597.05 343.63 593.03 348.52C586.38 356.6 579.98 365.34 575.39 374.8C574.2 377.25 572.84 380.01 572.14 382.63C571.82 383.79 571.88 385.01 571.54 386.15C570.86 388.47 569.1 390.49 568.44 392.85C567.75 395.32 567.75 398 567.09 400.47C566.71 401.85 565.97 403.15 565.47 404.5C564.88 407.5 564.29 410.5 563.7 413.5C563.7 417.64 564.19 422.13 563.57 426.22C563.13 429.05 562.02 431.61 561.91 434.5C561.78 437.92 563.16 440.44 563.61 443.69C564.18 447.83 563.68 452.32 563.73 456.5C565.22 459.65 565.46 462.23 565.5 465.69C566.06 467.29 566.77 468.86 567.18 470.5C567.72 472.67 567.73 475.06 568.43 477.19C569.19 479.51 570.72 481.68 571.46 484.01C572.29 486.63 572.56 489.23 573.66 491.83C575.78 496.85 579.05 501.06 581.86 505.67C585.24 511.19 588.78 516.63 592.83 521.72C594.73 524.11 597.27 525.95 599.51 528C603.22 531.4 606.74 534.71 610.65 537.87C611.9 538.88 612.84 540.39 614.18 541.29C615.04 541.87 616.03 542.09 616.92 542.59C621.54 545.14 625.5 548.87 630.21 551.29C636.94 554.74 644.17 556.82 651.22 559.37C652.13 559.69 652.83 560.37 653.74 560.67C657.96 562.03 662.63 562.23 666.5 564.43C669.17 565.03 671.83 565.63 674.5 566.23C677.11 566.26 679.85 566.04 682.45 566.33C683.83 566.48 685.1 566.98 686.5 567.11C691.13 567.55 695.86 566.84 700.5 567.15C701.85 567.24 703.16 567.65 704.51 567.66C705.85 567.67 707.16 567.25 708.5 567.16C713.14 566.84 717.86 567.51 722.5 567.12C725.9 566.84 729.03 566.27 732.5 566.27C735.72 565.13 738.03 564.44 741.5 564.43C743.99 563.14 746.16 563.08 748.78 562.34C751.52 561.56 754.16 560.31 756.86 559.42C761.6 557.86 766.38 556.46 771 554.5C784.95 548.59 797.87 538.87 808.5 528.22C831.3 545.31 854.1 562.41 876.9 579.5C874.6 582.28 871.91 585.32 869.05 587.55C867.52 588.76 865.69 589.4 864.2 590.69C862.77 591.92 861.62 593.45 860.18 594.66C858.69 595.91 856.93 596.74 855.39 597.9C853.11 599.6 851.1 601.65 848.77 603.28C846.74 604.7 844.28 605.35 842.22 606.69C836.72 610.29 830.4 615.21 824.56 618.12C822.5 619.14 820.19 619.71 818.07 620.56C814.59 621.96 811.4 623.96 807.98 625.47C805.32 626.65 802.52 627.39 799.81 628.4C793.72 630.65 787.81 633.52 781.46 635.04C779.51 635.51 777.49 635.53 775.54 636.06C772.69 636.83 770.49 637.52 767.5 637.57C764.17 638.69 760.83 639.81 757.5 640.93C753.45 641.16 750.17 640.97 746.5 642.83C741.29 643.01 736.44 643.93 731.32 644.64C729.06 644.95 726.76 644.54 724.5 644.74C723.04 644.87 721.73 645.41 720.3 645.6C716.16 646.16 711.67 645.68 707.5 645.68C700.87 645.68 694.12 646.04 687.5 645.67C685.75 645.57 684.22 644.97 682.5 644.77C680.2 644.5 677.85 644.94 675.55 644.68C670.47 644.1 665.68 642.96 660.5 642.91C659.17 642.33 657.83 641.76 656.5 641.18C654.5 641.05 652.5 640.92 650.5 640.79C648.17 640.29 645.83 639.79 643.5 639.29C636.17 637.47 628.83 635.66 621.5 633.85C617.98 631.97 614.42 630.96 610.66 629.81C604.94 628.08 599.57 624.92 594.23 622.34C589.41 620.02 584.26 618.62 579.57 615.98C575.35 613.61 571.38 610.77 567.28 608.22C564.58 606.55 561.62 605.28 558.98 603.51C552.88 599.41 546.89 594.88 541.1 590.38C538.48 588.34 536.54 585.63 534.07 583.44C532.99 582.48 531.74 581.8 530.64 580.87C526.81 577.64 523.8 573.65 520.57 569.92C519.03 568.15 517.09 566.71 515.59 564.9C510.02 558.14 504.83 550.73 500.08 543.36C492.86 532.12 487.09 519.8 482.11 507.44C479.91 501.96 479.06 495.59 476.37 490.5C475.1 484.67 473.82 478.83 472.55 473ZM969.5 229.36C971.38 231.92 973.32 234.64 975.35 237.18C977.26 239.55 979.63 241.61 981.47 244.02C982.64 245.54 983.49 247.33 984.67 248.85C985.81 250.33 987.39 251.45 988.54 252.93C993.51 259.31 998.47 265.7 1003.43 272.07C1004.3 273.19 1005.47 274.04 1006.35 275.15C1009.6 279.25 1012.48 283.66 1015.67 287.83C1016.67 289.15 1017.95 290.23 1019.04 291.47C1022.15 294.99 1024.89 299.01 1027.74 302.77C1029.04 304.47 1030.68 305.86 1031.98 307.54C1033.03 308.89 1033.57 310.53 1034.61 311.88C1035.95 313.6 1037.88 314.92 1039.5 316.35C1040.29 317.54 1040.72 318.86 1041.48 320.04C1042.49 321.6 1044.22 322.66 1045.36 324.13C1048.55 328.26 1051.85 332.32 1055.04 336.46C1056.36 338.17 1057.32 340.15 1058.68 341.83C1060.15 343.66 1062.15 345.03 1063.57 346.91C1067.03 351.46 1070.34 356.15 1073.89 360.62C1075.79 363 1078.15 365.06 1080.03 367.45C1085.47 374.35 1090.59 381.53 1096.19 388.29C1097.4 389.74 1098.92 390.91 1100.1 392.37C1107.44 401.41 1114.38 410.8 1121.52 419.99C1123.69 422.77 1126.32 425.22 1128.45 428.03C1132.48 433.35 1136.79 438.38 1140.95 443.59C1145.11 448.78 1148.69 454.43 1153.14 459.36C1156.46 463.02 1158.48 467.62 1163.5 468.97C1167.64 466.95 1170.29 463.06 1172.94 459.42C1174.05 457.89 1175.61 456.74 1176.79 455.28C1177.84 453.98 1178.61 452.49 1179.69 451.2C1180.75 449.93 1182.07 448.9 1183.08 447.59C1185.4 444.57 1187.42 441.27 1189.84 438.32C1191.03 436.87 1192.57 435.73 1193.73 434.25C1196.81 430.31 1199.4 425.94 1202.52 422.03C1205.77 417.96 1209.33 414.13 1212.55 410.04C1213.74 408.52 1214.55 406.72 1215.74 405.21C1217.62 402.81 1220.04 400.8 1221.94 398.4C1226.02 393.21 1229.81 387.66 1234.1 382.62C1237.1 379.1 1240.71 375.66 1243.42 371.93C1244.29 370.73 1244.75 369.31 1245.62 368.11C1247.55 365.44 1250.03 363.15 1252.09 360.6C1256.11 355.62 1259.8 350.31 1263.87 345.34C1264.91 344.07 1266.27 343.09 1267.3 341.81C1270.59 337.75 1273.19 333.1 1276.53 329.06C1278.78 326.35 1281.48 323.99 1283.7 321.25C1284.79 319.91 1285.44 318.32 1286.45 316.95C1287.57 315.43 1289.19 314.33 1290.37 312.87C1291.57 311.38 1292.35 309.54 1293.58 308.09C1294.94 306.47 1296.83 305.37 1298.15 303.69C1300.08 301.23 1301.46 298.35 1303.42 295.91C1306.69 291.84 1309.85 287.73 1313.05 283.6C1314.36 281.92 1316.19 280.67 1317.42 278.92C1318.26 277.72 1318.73 276.31 1319.63 275.14C1320.5 274.02 1321.68 273.18 1322.54 272.06C1328.17 264.72 1334.28 257.75 1340.02 250.49C1345.68 243.32 1350.59 235.45 1357.5 229.34C1372.07 229.34 1386.64 229.34 1401.22 229.34C1401.22 366 1401.22 502.66 1401.22 639.32C1370.98 639.32 1340.74 639.32 1310.5 639.32C1309.74 632.8 1310.17 626.06 1310.17 619.5C1310.17 607.83 1310.17 596.17 1310.17 584.5C1310.17 549.17 1310.17 513.83 1310.17 478.5C1310.17 465.5 1310.17 452.5 1310.17 439.5C1310.17 436.01 1311.08 431 1309.78 427.73C1309.2 426.29 1307.69 425.64 1306.5 424.9C1305.56 425.09 1304.8 425.02 1303.9 425.44C1300.81 426.86 1297.55 433.19 1295.4 435.89C1294.36 437.19 1292.93 438.15 1291.99 439.52C1291.28 440.55 1290.98 441.77 1290.27 442.79C1289.22 444.32 1287.53 445.41 1286.37 446.85C1284.27 449.45 1282.61 452.45 1280.58 455.11C1277.72 458.87 1274.68 462.53 1271.77 466.27C1270.89 467.39 1269.76 468.26 1268.86 469.35C1266.9 471.75 1265.25 474.45 1263.39 476.91C1258.41 483.52 1252.82 489.72 1247.78 496.26C1246.87 497.43 1246.37 498.85 1245.52 500.05C1242.79 503.9 1239.44 507.36 1236.6 511.11C1234.58 513.77 1232.87 516.67 1230.84 519.32C1227.82 523.25 1224.11 526.7 1221.1 530.65C1220.08 532 1219.53 533.62 1218.47 534.94C1217.58 536.05 1216.4 536.9 1215.52 538.02C1208.75 546.61 1202.31 555.43 1195.44 563.94C1191.71 568.56 1188.57 573.67 1184.5 578.03C1170.17 578.03 1155.83 578.03 1141.5 578.03C1138.64 573.89 1135.26 570.27 1132.16 566.31C1128.35 561.44 1125.3 555.92 1121.38 551.14C1120.18 549.68 1118.59 548.56 1117.47 547.03C1110.15 537.05 1102.35 527.54 1094.56 517.93C1092.57 515.48 1091.2 512.66 1089.35 510.15C1088.24 508.63 1086.62 507.52 1085.44 506.05C1083.18 503.25 1081.36 500.13 1079.19 497.28C1078.34 496.17 1077.16 495.34 1076.33 494.21C1075.45 493.02 1074.97 491.6 1074.08 490.41C1072.81 488.7 1071 487.47 1069.71 485.79C1066.53 481.61 1063.55 477.28 1060.41 473.08C1058.86 471 1056.76 469.35 1055.19 467.3C1053.31 464.84 1051.92 462.02 1049.98 459.56C1044.08 452.09 1037.95 444.83 1032.1 437.34C1028.9 433.23 1025.58 426.86 1020.5 425.2C1014.93 428.53 1016.71 433.63 1016.71 439.5C1016.71 452.5 1016.71 465.5 1016.71 478.5C1016.71 513.83 1016.71 549.17 1016.71 584.5C1016.71 596.17 1016.71 607.83 1016.71 619.5C1016.71 625.93 1017.06 632.49 1016.5 638.88C1009.34 639.92 1001.76 639.32 994.5 639.32C982.17 639.32 969.83 639.32 957.5 639.32C951.17 639.32 944.83 639.32 938.5 639.32C934.13 639.32 929.76 639.68 925.63 638.5C925.63 502.12 925.63 365.74 925.63 229.36C940.25 229.36 954.88 229.36 969.5 229.36Z" fill="#000000" fill-rule="evenodd" stroke="#000000" stroke-width="0.25" stroke-linejoin="round"/>
<path d="M698.5 16.79C703.69 18.36 709.99 23.68 714.39 27.1C717.8 29.75 721.58 31.88 725.04 34.46C733.24 40.59 741.57 46.57 749.87 52.58C772.71 69.15 796.08 84.95 818.69 101.81C823.88 105.68 829.53 108.92 834.74 112.76C848.77 123.11 863.31 132.78 877.26 143.23C891.22 153.7 906.13 162.91 920.01 173.49C922.46 175.36 925.08 177.15 927.6 178.91C928.72 179.69 930.98 180.55 931.59 181.83C932.01 182.71 931.81 183.58 931.92 184.5C929.43 186.78 927.85 186.11 924.5 186.11C919.5 186.11 914.5 186.11 909.5 186.11C904.6 186.11 899.39 185.6 894.52 186.14C893.14 186.3 891.89 186.85 890.5 186.99C885.6 187.49 880.42 187.02 875.5 187.02C867.18 187.02 858.82 187.23 850.5 186.9C823.37 167.33 796 148.15 768.94 128.55C761.39 123.08 753.5 118.04 746.05 112.45C735.75 104.72 724.97 97.62 714.65 89.92C710.61 86.91 706.4 84.16 702.36 81.13C701.65 80.61 700.99 79.72 700.18 79.36C699.23 78.94 698.48 78.99 697.5 78.77C690.09 83.6 682.96 89.04 675.86 94.35C667.47 100.63 658.57 106.27 650.19 112.63C642.74 118.28 634.77 123.2 627.25 128.75C612.86 139.38 598.22 149.67 583.78 160.26C578.19 164.36 572.2 167.97 566.67 172.15C554.28 181.52 541.24 190 528.75 199.23C514.35 209.87 499.7 220.15 485.27 230.76C475.62 237.84 465.5 244.3 455.91 251.43C450 255.82 444.29 260.55 438.41 264.99C434.98 267.58 431.23 269.75 427.78 272.32C415.53 281.44 402.76 289.84 390.51 298.96C388.22 300.67 386.17 302.66 383.87 304.37C381.2 306.35 378.29 308.06 375.63 310.06C371.94 312.84 370.41 314.91 365.5 314.54C364.04 312.37 363.09 309.97 361.76 307.72C357.4 300.34 353.56 292.66 349.26 285.25C346.63 280.71 342.52 275.77 342.18 270.5C395.59 231.83 448.99 193.17 502.4 154.5C502.55 131.84 502.42 109.17 502.42 86.5C502.42 80.17 502.42 73.83 502.42 67.5C502.42 64.01 501.97 60.71 503.5 57.6C508.09 56.99 512.87 57.32 517.5 57.32C525.83 57.32 534.17 57.32 542.5 57.32C548.6 57.32 556.22 56.08 561.86 58.35C561.86 76.28 561.86 94.21 561.86 112.14C568.07 109.36 574.21 104.35 579.7 100.21C584.66 96.47 589.99 93.19 594.96 89.46C602.61 83.73 610.8 78.72 618.41 72.95C633.07 61.84 648.28 51.43 663.22 40.69C671.56 34.69 679.99 28.82 688.28 22.78C691.59 20.37 694.49 17.71 698.5 16.79ZM267.5 230.2C342.92 365.96 418.35 501.73 493.77 637.5C490.31 638.87 486.33 638.41 482.5 638.41C475.83 638.41 469.17 638.41 462.5 638.41C447.17 638.41 431.83 638.41 416.5 638.41C408.32 638.41 399.53 639.28 391.5 637.89C387.77 629.41 382.67 621.39 378.25 613.27C373.97 605.41 370.5 597.13 366.19 589.31C360.65 579.27 354.52 569.52 349.06 559.4C337.09 537.22 323.98 515.58 312.16 493.31C310.95 491.03 310.6 488.42 309.39 486.1C307.6 482.65 305.29 479.44 303.59 475.92C302.8 474.3 302.39 472.49 301.54 470.89C300.88 469.63 299.84 468.58 299.23 467.27C297.42 463.42 295.69 459.51 293.9 455.68C292.37 452.41 289.94 449.47 288.3 446.24C287.48 444.63 287.1 442.82 286.29 441.22C285.64 439.91 284.59 438.78 283.93 437.47C280.33 430.42 276.79 423.48 273.05 416.46C271.61 413.74 270.86 410.7 269.48 407.99C268.73 406.52 267.43 405.28 266.66 403.8C265.49 401.59 264.77 399.09 263.54 396.9C260.2 390.9 256.47 385.13 254.35 378.5C252.06 376.28 249.78 374.07 247.5 371.85C241.9 376.68 239.97 382.85 236.62 389.22C233.78 394.6 230.37 399.71 227.69 405.18C226.78 407.02 226.35 409.08 225.43 410.93C221.4 419.03 216.63 426.84 212.45 434.89C211.28 437.14 210.53 439.64 209.38 441.9C208.63 443.37 207.36 444.61 206.59 446.08C203.62 451.79 200.89 457.63 197.92 463.37C194.84 469.34 191.75 475.34 188.77 481.29C187.39 484.04 185.75 486.47 185.13 489.5C186.58 491.36 188.04 493.22 189.5 495.08C211.11 495.08 232.73 495.08 254.34 495.08C258.03 500.83 260.92 507.28 264.19 513.31C269.91 523.86 276.01 534.2 281.73 544.75C284.18 549.27 286.86 553.67 289.35 558.18C290.08 559.49 291.55 561.18 291.75 562.68C291.83 563.31 291.57 563.94 291.59 564.56C242.56 564.56 193.53 564.56 144.5 564.56C143.21 566.01 141.6 567.37 140.48 568.96C138.34 572 137.15 575.75 135.45 578.99C134.69 580.45 133.49 581.73 132.65 583.17C131.66 584.86 130.92 586.71 129.98 588.43C126.79 594.27 123.95 600.41 120.6 606.15C119.66 607.78 118.32 609.23 117.46 610.9C115.75 614.22 114.26 617.71 112.5 621.03C111.71 622.52 110.44 623.69 109.64 625.16C108.78 626.74 108.45 628.62 107.63 630.21C106.21 632.99 104.51 636.05 102.5 638.41C68.83 638.41 35.17 638.41 1.5 638.41C2.65 632.81 6.34 627.74 9.23 622.74C12.44 617.19 15.39 611.46 18.35 605.8C18.91 604.74 19.76 603.87 20.29 602.78C23.3 596.6 27.29 591.04 30.45 584.94C31.04 583.8 31.3 582.56 31.9 581.43C32.57 580.18 33.69 579.13 34.35 577.86C36.05 574.57 37.49 571.06 39.23 567.77C39.9 566.5 40.92 565.42 41.65 564.18C44.97 558.52 48.31 552.72 51.44 546.95C53.08 543.92 54.47 540.69 56.04 537.66C57.62 534.63 59.6 531.77 61.39 528.88C64.1 524.5 66.25 519.62 68.61 515.09C69.71 512.98 71.32 511.06 72.43 508.96C74.37 505.29 76.6 501.7 78.46 497.97C79.68 495.52 80.7 493.02 82.15 490.68C85.12 485.84 87.89 480.97 90.49 475.95C91.14 474.69 92.23 473.59 92.91 472.33C94.41 469.51 95.59 466.48 97.19 463.69C98.15 462.03 99.49 460.55 100.37 458.86C101.49 456.66 102.33 454.29 103.61 452.15C104.6 450.5 105.89 449.02 106.89 447.37C109.74 442.73 111.42 437.41 114.23 432.71C115.08 431.28 116.38 430.15 117.18 428.68C117.91 427.33 118.26 425.83 118.98 424.47C120.65 421.25 123.16 418.46 124.79 415.24C125.81 413.21 126.38 411 127.47 408.98C128.95 406.24 131.13 403.87 132.59 401.15C133.88 398.73 134.81 396.09 136.22 393.72C138.07 390.58 140.06 387.5 141.73 384.24C142.75 382.25 143.51 380.12 144.63 378.17C145.59 376.48 146.94 374.97 147.85 373.26C148.89 371.28 149.62 369.13 150.67 367.15C155.14 358.74 160.53 350.79 165.04 342.44C172.29 328.99 179.66 315.69 186.73 302.21C188.06 299.67 189.98 297.38 191.38 294.86C195.06 288.19 198.4 281.3 201.98 274.58C205.29 268.36 209.18 262.38 212.77 256.3C214.28 253.75 215.3 250.88 216.76 248.3C220.15 242.31 223.4 236.13 227 230.2C240.5 230.2 254 230.2 267.5 230.2ZM365.38 744C356.75 744 348.13 744 339.5 744C337.92 738.75 337.04 733.62 332.5 729.99C325.08 724.07 309.05 723.3 301.25 728.74C298.71 730.52 297.36 732.83 295.95 735.5C295.95 738.17 295.95 740.83 295.95 743.5C301.32 751.55 312.51 753.01 321.34 755.28C336.06 759.06 352.43 761.4 362.56 773.94C365.1 777.08 367.31 780.19 368.41 784.15C369.44 787.84 369.82 791.67 369.76 795.5C369.67 800.74 368.53 806.05 366.32 810.8C359.86 824.68 345.17 831.27 330.81 833.45C307.07 837.05 276 830.92 267.05 805.45C265.29 800.44 264.96 795.35 265.05 790.1C273.75 790.1 282.46 790.1 291.17 790.1C291.73 793.78 292.02 797.38 293.71 800.77C298.43 810.26 309.66 813.34 319.5 813.17C329.34 813 343.21 809.91 343.13 797.5C343.11 795.29 342.44 793.5 341.62 791.5C335.73 784.25 326.07 782.39 317.51 780.04C300.66 775.41 276.47 771.63 270.51 752C269.59 748.99 269.09 745.65 269.02 742.5C268.91 737.68 269.69 732.53 271.57 728.07C275.6 718.48 284.74 711.29 294.28 707.75C318.73 698.67 356.58 704.54 364.26 733.34C365.2 736.85 365.59 740.37 365.38 744ZM1077.79 704.42C1101.6 701.31 1125.12 711.05 1137.79 731.72C1159.44 767.08 1145.33 825.1 1100.5 833.02C1081.37 836.4 1060.43 833.28 1045.55 819.97C1018.03 795.37 1018 743.63 1045.31 718.82C1054.41 710.55 1065.7 706 1077.79 704.42ZM421.89 706.82C455.89 706.82 489.88 706.82 523.87 706.82C523.87 714.51 523.87 722.2 523.87 729.89C511.45 729.89 499.03 729.89 486.61 729.89C486.61 763.52 486.61 797.15 486.61 830.77C483.42 832.04 479.98 831.65 476.5 831.65C470.75 831.65 464.77 832.12 459.09 831.29C459.09 797.49 459.09 763.69 459.09 729.89C446.69 729.89 434.29 729.89 421.89 729.89C421.89 722.2 421.89 714.51 421.89 706.82ZM583.5 706.86C592.48 706.86 601.46 706.86 610.45 706.86C610.93 715.04 610.61 723.31 610.61 731.5C610.61 746.5 610.61 761.5 610.61 776.5C610.61 790.75 610.17 806.05 626.91 810.55C629.71 811.3 632.76 811.49 635.67 811.51C638.82 811.53 642.23 811.39 645.3 810.71C663.04 806.75 662.1 790.24 662.1 775.5C662.1 760.83 662.1 746.17 662.1 731.5C662.1 723.42 661.3 714.84 662.5 706.86C671.42 706.86 680.33 706.86 689.25 706.86C689.99 725.02 689.4 743.32 689.4 761.5C689.4 785.43 692.77 812.3 669.08 826.56C664.84 829.11 660.32 830.86 655.55 832.14C649.38 833.8 642.87 834.29 636.5 834.3C630.09 834.32 623.52 833.9 617.28 832.32C612.5 831.11 607.88 829.39 603.64 826.86C584.76 815.59 583.05 796.58 583.05 776.5C583.05 769.17 583.05 761.83 583.05 754.5C583.05 744.5 583.05 734.5 583.05 724.5C583.05 718.68 582.54 712.58 583.5 706.86ZM758.66 831.5C758.66 790.17 758.66 748.83 758.66 707.5C765.87 705.76 778.6 706.81 786.5 706.81C807.69 706.81 830.47 704.4 848.28 718.21C857.12 725.07 862.67 734.99 865.94 745.51C873.48 769.75 868.33 805.32 846.76 821.25C831.53 832.49 814.47 831.65 796.5 831.65C783.92 831.65 771.21 832.17 758.66 831.5ZM933.33 706.87C942.49 706.87 951.66 706.87 960.83 706.87C960.83 748.44 960.83 790.01 960.83 831.59C951.66 831.59 942.49 831.59 933.33 831.59C933.33 790.01 933.33 748.44 933.33 706.87ZM1080.59 727.28C1065.29 729.63 1056.04 742.81 1053.63 757.31C1052.97 761.29 1052.33 765.46 1052.32 769.5C1052.24 787.61 1061.03 809.3 1081.5 811.22C1085.44 811.59 1089.58 811.66 1093.49 810.96C1108.42 808.26 1116.75 794.4 1119.17 780.52C1122.79 759.69 1116.68 731.47 1092.31 727.34C1088.53 726.7 1084.37 726.7 1080.59 727.28ZM785.97 808.26C791.14 808.59 796.32 808.49 801.5 808.49C812.2 808.49 823.01 808.56 831.25 800.74C840.47 792 841.87 778.45 841.27 766.5C840.71 755.54 838.06 743.67 828.94 736.54C820.56 729.99 809.61 729.88 799.5 729.88C795 729.88 790.31 729.46 785.97 730.5C785.97 756.42 785.97 782.34 785.97 808.26Z" fill="#295c4e" fill-rule="evenodd" stroke="#295c4e" stroke-width="0.25" stroke-linejoin="round"/>
<path d="M472.2 472.16C472.32 472.44 472.44 472.72 472.55 473C472.44 472.72 472.32 472.44 472.2 472.16Z" fill="#ffffff" fill-rule="evenodd" stroke="#ffffff" stroke-width="0.25" stroke-linejoin="round"/>
</svg>